<svg width="512" height="512" viewBox="0 0 512 512" xmlns="http://www.w3.org/2000/svg">
  <defs>
    <linearGradient id="grad1" x1="0%" y1="0%" x2="100%" y2="100%">
      <stop offset="0%" style="stop-color:#f5e6d3;stop-opacity:1" />
      <stop offset="100%" style="stop-color:#8b7355;stop-opacity:1" />
    </linearGradient>
  </defs>
  
  <!-- Background circle -->
  <circle cx="256" cy="256" r="240" fill="url(#grad1)" stroke="#8b7355" stroke-width="8"/>
  
  <!-- Heart symbol -->
  <path d="M256 320c-20-20-60-40-80-60-20-20-40-40-40-60 0-20 20-40 40-40 20 0 40 20 40 40 0-20 20-40 40-40s40 20 40 40c0 20-20 40-40 60s-60 40-80 60z" 
        fill="#ffffff" stroke="#8b7355" stroke-width="4"/>
  
  <!-- Camera icon -->
  <rect x="200" y="180" width="112" height="80" rx="8" fill="#ffffff" stroke="#8b7355" stroke-width="4"/>
  <circle cx="256" cy="220" r="16" fill="#8b7355"/>
  <rect x="220" y="200" width="72" height="40" rx="4" fill="#f5e6d3"/>
  
  <!-- Small hearts around -->
  <circle cx="120" cy="120" r="8" fill="#ffffff"/>
  <circle cx="392" cy="120" r="8" fill="#ffffff"/>
  <circle cx="120" cy="392" r="8" fill="#ffffff"/>
  <circle cx="392" cy="392" r="8" fill="#ffffff"/>
</svg> 